<svg width="30" height="30" fill="none" xmlns="http://www.w3.org/2000/svg"><path d="M15 0C6.73 0 0 6.728 0 15c0 8.27 6.73 14.998 15 14.998S30 23.27 30 15 23.27 0 15 0zm0 29C7.28 29 1 22.717 1 15 1 7.28 7.28 1 15 1s14 6.28 14 14c0 7.718-6.28 14-14 14z" fill="#fff"/><path d="M18.274 6.58h-2.496c-3.179-.032-3.585 1.935-3.585 4.064v1.549H10.79a.416.416 0 00-.467.467v2.807a.416.416 0 00.467.467h1.403v7.016a.42.42 0 00.471.468h2.858c.276.032.5-.192.411-.468l.002-7.016h2.339a.416.416 0 00.468-.467V12.66a.416.416 0 00-.468-.467h-2.342l.003-1.404c.091-.597.091-.5.646-.467h1.673c.13-.03.269-.013.366-.108a.376.376 0 00.12-.36V7.048a.416.416 0 00-.466-.468zm-.5 2.754L16.6 9.289c-1.452 0-1.574.789-1.574 1.596l-.004 1.773a.5.5 0 00.5.5h2.284v1.808h-2.282a.5.5 0 00-.5.5l-.002 7.017H13.13v-7.016c0-.276-.188-.5-.465-.5h-1.406V13.16h1.406a.5.5 0 00.354-.146c.093-.095.11-.222.11-.355v-2.016c0-2.097.424-3.096 2.65-3.096h1.995v1.787z" fill="#fff"/></svg>